<svg width="489" height="98" viewBox="0 0 489 98" fill="none" xmlns="http://www.w3.org/2000/svg">
<g clip-path="url(#clip0_5_338)">
<path d="M87.34 19.483L71.297 35.74C69.548 34.005 67.907 32.383 66.274 30.753C65.734 30.213 65.05 29.746 64.397 30.25C63.4138 30.9891 62.5395 31.863 61.8 32.846C61.391 33.406 61.653 34.216 62.257 34.766C63.948 36.307 65.627 37.862 67.406 39.499C65.282 41.514 63.476 43.257 61.638 44.964C58.069 48.277 54.511 51.604 50.893 54.864C47.2549 58.1411 43.5787 61.3757 39.865 64.567C36.0391 67.85 32.1738 71.0869 28.27 74.277C24.32 77.493 20.285 80.606 16.304 83.785C15.869 84.132 15.628 84.055 15.27 83.701C7.83002 76.36 2.82802 67.704 0.898021 57.353C0.221021 53.723 -0.131979 50.071 0.0460214 46.393C0.544021 36.076 3.76602 26.726 10.179 18.55C16.576 10.396 24.784 4.91997 34.696 1.96997C40.2751 0.325404 46.1054 -0.297935 51.906 0.129973C62.136 0.831973 71.261 4.46597 79.223 10.938C82.2772 13.4343 85.005 16.3052 87.342 19.483H87.34ZM47.982 28.86C47.952 28.858 47.907 28.842 47.896 28.855C47.798 28.967 47.716 29.092 47.612 29.198C45.373 31.501 42.742 32.742 39.44 32.394C35.262 31.954 31.456 28.361 31.256 23.352C31.118 19.863 32.628 17.057 35.351 14.91C36.131 14.294 36.978 13.763 37.817 13.178C35.556 12.059 29.944 13.274 26.817 16.716C23.03 20.886 22.41 27.332 25.403 32.276C26.8218 34.5907 28.9504 36.3852 31.4716 37.3923C33.9928 38.3994 36.7719 38.5652 39.395 37.865C44.331 36.515 47.605 32.365 47.982 28.86ZM30.189 93.195C46.966 80.002 62.379 65.402 76.913 50.153C78.056 51.207 79.145 52.211 80.233 53.217C80.585 53.579 80.955 53.9213 81.343 54.244C82.177 54.863 82.895 54.793 83.636 54.066C84.1478 53.5694 84.6489 53.062 85.139 52.544C85.911 51.721 85.915 50.745 85.099 49.955C83.606 48.511 82.081 47.1 80.483 45.595L93.873 31.762C99.534 46.412 98.18 67.702 81.786 83.711C66.645 98.495 44.809 100.195 30.189 93.195ZM71.148 44.291L74.633 47.504C72.64 49.573 70.769 51.6 68.806 53.534C63.539 58.728 58.312 63.966 52.918 69.024C48.504 73.165 43.908 77.116 39.325 81.072C35.329 84.52 31.309 87.948 27.163 91.212C24.305 93.462 21.133 95.238 17.502 96.04C13.467 96.932 9.52202 96.614 5.62402 95.333C5.27253 95.231 4.93111 95.0971 4.60402 94.933C8.19011 94.2511 11.6867 93.1624 15.026 91.688C19.49 89.754 23.441 87.001 27.167 83.927C32.314 79.68 37.477 75.447 42.49 71.045C48.09 66.127 53.57 61.073 59.022 55.991C63.169 52.124 67.19 48.12 71.148 44.291ZM97.024 25.52L91.043 19.787C92.061 18.793 92.881 17.869 93.829 17.102C94.719 16.381 95.992 16.502 96.833 17.283C97.6823 18.0652 98.4945 18.8868 99.267 19.745C100.256 20.852 100.229 22.116 99.277 23.265C99.0617 23.5463 98.832 23.8163 98.588 24.075C98.101 24.55 97.589 25 97.024 25.519V25.52ZM84.183 32.03L84.714 35.954L80.634 35.617L80.384 31.781L84.183 32.03ZM90.51 30.038C89.249 29.914 88.083 29.812 86.924 29.668C86.8357 29.6355 86.7568 29.5818 86.6944 29.5115C86.6319 29.4412 86.5878 29.3565 86.566 29.265C86.452 28.19 86.38 27.11 86.284 25.895L90.322 26.096L90.51 30.038ZM75.282 41.051L75.038 37.541L78.856 37.775L79.212 41.648L75.282 41.051Z" fill="#141414"/>
</g>
<path d="M133.12 78V19.0909H145.575V45.065H146.352L167.551 19.0909H182.479L160.619 45.4677L182.738 78H167.838L151.702 53.7805L145.575 61.2592V78H133.12ZM201.334 78.8342C198.515 78.8342 196.003 78.3452 193.798 77.3672C191.593 76.37 189.848 74.9031 188.563 72.9663C187.297 71.0103 186.665 68.5749 186.665 65.6602C186.665 63.2056 187.115 61.1442 188.017 59.4759C188.918 57.8075 190.145 56.4652 191.698 55.4489C193.252 54.4325 195.016 53.6655 196.991 53.1477C198.985 52.63 201.075 52.2656 203.262 52.0547C205.831 51.7862 207.902 51.5369 209.475 51.3068C211.047 51.0575 212.188 50.6932 212.898 50.2138C213.607 49.7344 213.962 49.0249 213.962 48.0852V47.9126C213.962 46.0909 213.387 44.6815 212.236 43.6843C211.105 42.6871 209.494 42.1886 207.404 42.1886C205.198 42.1886 203.444 42.6776 202.14 43.6555C200.836 44.6143 199.973 45.8224 199.551 47.2798L188.218 46.3594C188.793 43.6747 189.925 41.3544 191.612 39.3984C193.3 37.4233 195.476 35.9084 198.142 34.8537C200.826 33.7798 203.933 33.2429 207.461 33.2429C209.916 33.2429 212.265 33.5305 214.508 34.1058C216.771 34.6811 218.775 35.5728 220.52 36.7809C222.284 37.989 223.675 39.5423 224.691 41.4407C225.707 43.32 226.215 45.5732 226.215 48.2003V78H214.595V71.8732H214.249C213.54 73.2539 212.591 74.4716 211.402 75.5263C210.213 76.5618 208.784 77.3768 207.116 77.9712C205.448 78.5465 203.52 78.8342 201.334 78.8342ZM204.844 70.3775C206.646 70.3775 208.238 70.0227 209.618 69.3132C210.999 68.5845 212.083 67.6065 212.869 66.3793C213.655 65.152 214.048 63.7617 214.048 62.2085V57.5199C213.665 57.7692 213.137 57.9993 212.466 58.2102C211.814 58.402 211.076 58.5842 210.251 58.7567C209.427 58.9102 208.602 59.054 207.778 59.1882C206.953 59.3033 206.205 59.4087 205.534 59.5046C204.096 59.7156 202.84 60.0511 201.766 60.5114C200.692 60.9716 199.858 61.5948 199.263 62.381C198.669 63.1481 198.372 64.1069 198.372 65.2575C198.372 66.9258 198.976 68.201 200.184 69.0831C201.411 69.946 202.964 70.3775 204.844 70.3775ZM259.222 33.8182V43.0227H232.615V33.8182H259.222ZM238.656 23.233H250.909V64.4233C250.909 65.5547 251.082 66.4368 251.427 67.0696C251.772 67.6832 252.252 68.1147 252.865 68.364C253.498 68.6133 254.227 68.7379 255.051 68.7379C255.627 68.7379 256.202 68.69 256.777 68.5941C257.353 68.479 257.794 68.3928 258.1 68.3352L260.028 77.4535C259.414 77.6452 258.551 77.8658 257.439 78.1151C256.327 78.3835 254.975 78.5465 253.383 78.604C250.43 78.7191 247.841 78.326 245.617 77.4247C243.412 76.5234 241.695 75.1236 240.468 73.2251C239.241 71.3267 238.637 68.9297 238.656 66.0341V23.233ZM279.803 78.8342C276.984 78.8342 274.472 78.3452 272.267 77.3672C270.062 76.37 268.317 74.9031 267.032 72.9663C265.766 71.0103 265.133 68.5749 265.133 65.6602C265.133 63.2056 265.584 61.1442 266.485 59.4759C267.387 57.8075 268.614 56.4652 270.167 55.4489C271.72 54.4325 273.485 53.6655 275.46 53.1477C277.454 52.63 279.544 52.2656 281.73 52.0547C284.3 51.7862 286.371 51.5369 287.943 51.3068C289.516 51.0575 290.657 50.6932 291.366 50.2138C292.076 49.7344 292.431 49.0249 292.431 48.0852V47.9126C292.431 46.0909 291.855 44.6815 290.705 43.6843C289.573 42.6871 287.963 42.1886 285.872 42.1886C283.667 42.1886 281.912 42.6776 280.608 43.6555C279.305 44.6143 278.442 45.8224 278.02 47.2798L266.687 46.3594C267.262 43.6747 268.393 41.3544 270.081 39.3984C271.768 37.4233 273.945 35.9084 276.61 34.8537C279.295 33.7798 282.401 33.2429 285.93 33.2429C288.384 33.2429 290.733 33.5305 292.977 34.1058C295.24 34.6811 297.244 35.5728 298.989 36.7809C300.753 37.989 302.143 39.5423 303.16 41.4407C304.176 43.32 304.684 45.5732 304.684 48.2003V78H293.063V71.8732H292.718C292.009 73.2539 291.059 74.4716 289.871 75.5263C288.682 76.5618 287.253 77.3768 285.585 77.9712C283.916 78.5465 281.989 78.8342 279.803 78.8342ZM283.312 70.3775C285.115 70.3775 286.706 70.0227 288.087 69.3132C289.468 68.5845 290.551 67.6065 291.338 66.3793C292.124 65.152 292.517 63.7617 292.517 62.2085V57.5199C292.133 57.7692 291.606 57.9993 290.935 58.2102C290.283 58.402 289.545 58.5842 288.72 58.7567C287.895 58.9102 287.071 59.054 286.246 59.1882C285.422 59.3033 284.674 59.4087 284.003 59.5046C282.564 59.7156 281.308 60.0511 280.235 60.5114C279.161 60.9716 278.327 61.5948 277.732 62.381C277.138 63.1481 276.84 64.1069 276.84 65.2575C276.84 66.9258 277.444 68.201 278.653 69.0831C279.88 69.946 281.433 70.3775 283.312 70.3775ZM326.444 52.4574V78H314.191V33.8182H325.869V41.6133H326.387C327.365 39.0437 329.004 37.011 331.305 35.5153C333.607 34.0004 336.397 33.2429 339.676 33.2429C342.744 33.2429 345.419 33.9141 347.701 35.2564C349.983 36.5987 351.757 38.5163 353.022 41.0092C354.288 43.483 354.921 46.4361 354.921 49.8686V78H342.667V52.0547C342.686 49.3509 341.996 47.2415 340.596 45.7266C339.196 44.1925 337.269 43.4254 334.815 43.4254C333.165 43.4254 331.708 43.7802 330.442 44.4897C329.196 45.1992 328.218 46.2347 327.509 47.5962C326.818 48.9386 326.463 50.5589 326.444 52.4574ZM377.177 78.8342C374.358 78.8342 371.846 78.3452 369.641 77.3672C367.436 76.37 365.691 74.9031 364.406 72.9663C363.14 71.0103 362.507 68.5749 362.507 65.6602C362.507 63.2056 362.958 61.1442 363.859 59.4759C364.761 57.8075 365.988 56.4652 367.541 55.4489C369.094 54.4325 370.859 53.6655 372.834 53.1477C374.828 52.63 376.918 52.2656 379.104 52.0547C381.674 51.7862 383.745 51.5369 385.317 51.3068C386.89 51.0575 388.031 50.6932 388.74 50.2138C389.45 49.7344 389.805 49.0249 389.805 48.0852V47.9126C389.805 46.0909 389.229 44.6815 388.079 43.6843C386.947 42.6871 385.337 42.1886 383.246 42.1886C381.041 42.1886 379.286 42.6776 377.983 43.6555C376.679 44.6143 375.816 45.8224 375.394 47.2798L364.061 46.3594C364.636 43.6747 365.767 41.3544 367.455 39.3984C369.142 37.4233 371.319 35.9084 373.984 34.8537C376.669 33.7798 379.775 33.2429 383.304 33.2429C385.758 33.2429 388.108 33.5305 390.351 34.1058C392.614 34.6811 394.618 35.5728 396.363 36.7809C398.127 37.989 399.517 39.5423 400.534 41.4407C401.55 43.32 402.058 45.5732 402.058 48.2003V78H390.437V71.8732H390.092C389.383 73.2539 388.434 74.4716 387.245 75.5263C386.056 76.5618 384.627 77.3768 382.959 77.9712C381.29 78.5465 379.363 78.8342 377.177 78.8342ZM380.686 70.3775C382.489 70.3775 384.081 70.0227 385.461 69.3132C386.842 68.5845 387.925 67.6065 388.712 66.3793C389.498 65.152 389.891 63.7617 389.891 62.2085V57.5199C389.507 57.7692 388.98 57.9993 388.309 58.2102C387.657 58.402 386.919 58.5842 386.094 58.7567C385.269 58.9102 384.445 59.054 383.62 59.1882C382.796 59.3033 382.048 59.4087 381.377 59.5046C379.938 59.7156 378.682 60.0511 377.609 60.5114C376.535 60.9716 375.701 61.5948 375.106 62.381C374.512 63.1481 374.214 64.1069 374.214 65.2575C374.214 66.9258 374.818 68.201 376.027 69.0831C377.254 69.946 378.807 70.3775 380.686 70.3775ZM448.182 19.0909H460.636V57.3473C460.636 61.6428 459.611 65.4013 457.559 68.6229C455.526 71.8445 452.678 74.3565 449.016 76.1591C445.353 77.9425 441.086 78.8342 436.216 78.8342C431.326 78.8342 427.049 77.9425 423.387 76.1591C419.724 74.3565 416.877 71.8445 414.844 68.6229C412.811 65.4013 411.795 61.6428 411.795 57.3473V19.0909H424.25V56.283C424.25 58.5266 424.739 60.521 425.717 62.266C426.714 64.011 428.114 65.3821 429.916 66.3793C431.719 67.3764 433.819 67.875 436.216 67.875C438.632 67.875 440.732 67.3764 442.515 66.3793C444.318 65.3821 445.708 64.011 446.686 62.266C447.683 60.521 448.182 58.5266 448.182 56.283V19.0909ZM483.339 19.0909V78H470.884V19.0909H483.339Z" fill="#141414"/>
<defs>
<clipPath id="clip0_5_338">
<rect width="100" height="98" fill="white"/>
</clipPath>
</defs>
</svg>
